/* XPM */
static char *result[] = {
/* columns rows colors chars-per-pixel */
"16 16 177 2 ",
"   c #010000",
".  c #020000",
"X  c #060000",
"o  c #0B0000",
"O  c #0F0000",
"+  c #100000",
"@  c #130000",
"#  c #120100",
"$  c #140000",
"%  c #170000",
"&  c #180000",
"*  c #1E0100",
"=  c #1C0504",
"-  c #270000",
";  c #2E0000",
":  c #350000",
">  c #370100",
",  c #360200",
"<  c #380000",
"1  c #380300",
"2  c #3D0000",
"3  c #331603",
"4  c #420000",
"5  c #430000",
"6  c #480100",
"7  c #4B0000",
"8  c #510000",
"9  c #520000",
"0  c #5F0000",
"q  c #5C1F11",
"w  c #710100",
"e  c #730200",
"r  c #770000",
"t  c #760700",
"y  c #621B09",
"u  c #43231A",
"i  c #5C3613",
"p  c #603F26",
"a  c #693E35",
"s  c #64463B",
"d  c #7B615F",
"f  c #860000",
"g  c #890000",
"h  c #910000",
"j  c #9E0800",
"k  c #A00000",
"l  c #A40B00",
"z  c #B80100",
"x  c #B40F0A",
"c  c #B21000",
"v  c #902309",
"b  c #B92005",
"n  c #A5342F",
"m  c #CC0300",
"M  c #D20300",
"N  c #D70700",
"B  c #D80700",
"V  c #C91300",
"C  c #CB1800",
"Z  c #E61100",
"A  c #CD2704",
"S  c #C22901",
"D  c #D53405",
"F  c #F12000",
"G  c #F42300",
"H  c #F72500",
"J  c #F62C00",
"K  c #F72F00",
"L  c #E43600",
"P  c #FB3600",
"I  c #F83403",
"U  c #E43D16",
"Y  c #DA3B23",
"T  c #BF4E0B",
"R  c #99492E",
"E  c #CC5A13",
"W  c #E54E08",
"Q  c #FB4001",
"!  c #FD4701",
"~  c #FC4D02",
"^  c #FD4E02",
"/  c #FD5604",
"(  c #FE6306",
")  c #FE6406",
"_  c #FE770D",
"`  c #FE780D",
"'  c #FA6019",
"]  c #FE7810",
"[  c #E54221",
"{  c #ED412B",
"}  c #FC7732",
"|  c #884540",
" . c #8E594C",
".. c #9D5344",
"X. c #9C7254",
"o. c #9A725A",
"O. c #AD7A4D",
"+. c #AF6E69",
"@. c #C7775C",
"#. c #D77958",
"$. c #DE7367",
"%. c #E57C63",
"&. c #FE8314",
"*. c #F3841D",
"=. c #FE8A19",
"-. c #FE9521",
";. c #FF9521",
":. c #EC9B37",
">. c #FEA632",
",. c #FEA835",
"<. c #FEAF3F",
"1. c #EC9A49",
"2. c #F7A14D",
"3. c #FCAF4F",
"4. c #F2A15C",
"5. c #F5B250",
"6. c #FFBD55",
"7. c #FEBD56",
"8. c #D58D73",
"9. c #FA8E6B",
"0. c #F39E7A",
"q. c #DAAC6B",
"w. c #FEBD62",
"e. c #FEB078",
"r. c #FEC160",
"t. c #FEC96F",
"y. c #FECC75",
"u. c #FED07E",
"i. c #FED07F",
"p. c #B59997",
"a. c #C5928E",
"s. c #E49B8B",
"d. c #D5BB93",
"f. c #ECA58A",
"g. c #E0A799",
"h. c #EAB590",
"j. c #D5B5B1",
"k. c #F6C786",
"l. c #FECA97",
"z. c #FFD997",
"x. c #FEDA97",
"c. c #F8C7AA",
"v. c #FAD2A2",
"b. c #FBD7A4",
"n. c #EDC8B4",
"m. c #F7CDB6",
"M. c #F6D3BC",
"N. c #F0D9B8",
"B. c #F1DBBA",
"V. c #F8D9B8",
"C. c #F9D9BF",
"Z. c #FCE0B1",
"A. c #E1CCC7",
"S. c #E7D3C3",
"D. c #E9D5CD",
"F. c #F1DDC6",
"G. c #FBDDC1",
"H. c #F3D8CB",
"J. c #ECDDD6",
"K. c #FEE3C6",
"L. c #FEE7C4",
"P. c #FEE5CA",
"I. c #F9E2CE",
"U. c #FAE5D5",
"Y. c #FAE9D3",
"T. c #F2E0D8",
"R. c #F3E7DC",
"E. c #FAEFDF",
"W. c #F2ECE2",
"Q. c #F9F0E7",
"!. c #F3F0EB",
"~. c #FBF3F1",
"^. c #FAF7F1",
"/. c #FAF9F6",
"(. c #FEFEFD",
"). c #FEFEFE",
"_. c None",
/* pixels */
"_._._._._._._.c.m._._._._._._._.",
"_._._._.K.U.C.L.V.E.H.D._._._._.",
"_._._.G.f.{ ~ &.<.u.Z.Y.F._._._.",
"_._.v.X.w k B K ) ;.6.z.b.B._._.",
"_.4.O.+ 7 4 g M H ! ` ,.y.k.q._.",
"_.3.y v b : f U } I P ] r.w.5._.",
"_.E +.T.I...0.J.A.P.' l./.1.*._.",
"_.D $.R.Q.#.(.a q ).N.W.[ G W T ",
"_.L 9.n.M.g.~.8.@.!.s.^.e.Y C S ",
"_.A 2.h.%.x n a.j.S. .d p.| c _.",
"_.j :.=./ F m h 8 > = .   # l _.",
"_.t R t.>._ Q Z z r 2 & X < e _.",
"_._.5 o.x.7.-.( J N k 0 ; 6 _._.",
"_._._., s d.i.<.&.^ V 9 1 _._._.",
"_._._._.O - u p i 3 * $ _._._._.",
"_._._._._._._.@ o % _._._._._._."
};
