/* XPM */
static char *result[] = {
/* columns rows colors chars-per-pixel */
"32 32 213 2 ",
"   c #030000",
".  c #0C0000",
"X  c #140000",
"o  c #1B0101",
"O  c #240000",
"+  c #2B0000",
"@  c #330100",
"#  c #3C0000",
"$  c #3B0804",
"%  c #440100",
"&  c #4B0000",
"*  c #4E0901",
"=  c #550000",
"-  c #5B0100",
";  c #560801",
":  c #5C100E",
">  c #46160A",
",  c #640000",
"<  c #6A0000",
"1  c #6B0F00",
"2  c #740000",
"3  c #7A0300",
"4  c #733E0A",
"5  c #4F2B25",
"6  c #773732",
"7  c #794037",
"8  c #765D46",
"9  c #7B675B",
"0  c #850000",
"q  c #8B0200",
"w  c #860B00",
"e  c #920200",
"r  c #9A0100",
"t  c #9D0B00",
"y  c #991204",
"u  c #9F1F17",
"i  c #8A190E",
"p  c #A60300",
"a  c #AC0000",
"s  c #A50900",
"d  c #B20100",
"f  c #BB0000",
"g  c #B80800",
"h  c #BB1600",
"j  c #AB1901",
"k  c #9B2607",
"l  c #AB3B12",
"z  c #B1290E",
"x  c #963C34",
"c  c #C30200",
"v  c #CB0000",
"b  c #D30100",
"n  c #DB0200",
"m  c #D50B01",
"M  c #D81B02",
"N  c #CA1C00",
"B  c #E20500",
"V  c #EB0E00",
"C  c #E40800",
"Z  c #E21700",
"A  c #ED1100",
"S  c #EB1D00",
"D  c #F01600",
"F  c #F21B00",
"G  c #C42101",
"H  c #DC2C00",
"J  c #DA3800",
"K  c #C8310E",
"L  c #F62300",
"P  c #F32901",
"I  c #F92C00",
"U  c #E03500",
"Y  c #FB3500",
"T  c #FC3B00",
"R  c #C23D28",
"E  c #975D1A",
"W  c #BA5513",
"Q  c #814820",
"!  c #884B37",
"~  c #A54431",
"^  c #BF6E36",
"/  c #A77C33",
"(  c #D24906",
")  c #DB5606",
"_  c #EA4404",
"`  c #FE4400",
"'  c #FD4C01",
"]  c #F74100",
"[  c #FE5202",
"{  c #FF5B02",
"}  c #F95C08",
"|  c #EC4911",
" . c #E14312",
".. c #CF6418",
"X. c #FF6404",
"o. c #FE6B06",
"O. c #FC6B0E",
"+. c #FE7007",
"@. c #FE7509",
"#. c #FE7C0C",
"$. c #ED7013",
"%. c #FE7418",
"&. c #FE7613",
"*. c #EC6610",
"=. c #F25934",
"-. c #D57B2C",
";. c #EA7131",
":. c #A1564C",
">. c #8C705D",
",. c #9E7657",
"<. c #AB6F54",
"1. c #EC774A",
"2. c #B0803B",
"3. c #FE800E",
"4. c #FF8512",
"5. c #FE8B15",
"6. c #FE8E18",
"7. c #FE931B",
"8. c #FE981F",
"9. c #F78C23",
"0. c #FF9D24",
"q. c #FE9722",
"w. c #E08F36",
"e. c #F99A3B",
"r. c #EF8627",
"t. c #FEA32B",
"y. c #FFAA34",
"u. c #FBA936",
"i. c #FFB23F",
"p. c #B0884F",
"a. c #B8827B",
"s. c #DB835B",
"d. c #DE9953",
"f. c #FA9545",
"g. c #F39E5C",
"h. c #FEB645",
"j. c #FFB94B",
"k. c #FEAB56",
"l. c #FEBE54",
"z. c #FEBC59",
"x. c #EEA649",
"c. c #CF9471",
"v. c #DF9F79",
"b. c #D18F6D",
"n. c #EA8F66",
"m. c #D0AB7A",
"M. c #F7A867",
"N. c #E1A072",
"B. c #F9B976",
"V. c #FEC25C",
"C. c #FFC664",
"Z. c #FFC96B",
"A. c #FECD73",
"S. c #FECF79",
"D. c #EEC479",
"F. c #BE8D84",
"G. c #BD918D",
"H. c #A98E86",
"J. c #BEA997",
"K. c #C99F8A",
"L. c #F99D80",
"P. c #D0AF91",
"I. c #E2B686",
"U. c #F7BC86",
"Y. c #F1B49F",
"T. c #E8B194",
"R. c #DAAFA7",
"E. c #DBB9B5",
"W. c #D5B5A1",
"Q. c #F9C78A",
"!. c #FFD283",
"~. c #FED68D",
"^. c #ECC696",
"/. c #F7CA96",
"(. c #FED493",
"). c #FEDB9A",
"_. c #FFD89A",
"`. c #E5C48E",
"'. c #D8C5AB",
"]. c #E9C7A9",
"[. c #FBCEAE",
"{. c #FFDEA2",
"}. c #FDDCAB",
"|. c #FBD4AE",
" X c #EACABA",
".X c #F6C8B4",
"XX c #FBD9B9",
"oX c #FEE1AC",
"OX c #FFE3B5",
"+X c #FEE4BC",
"@X c #F5D5C7",
"#X c #E6DED7",
"$X c #FEDCD1",
"%X c #E7D0C9",
"&X c #FDE4CC",
"*X c #FEE6C4",
"=X c #EEE4DF",
"-X c #FEECD3",
";X c #FAE3D8",
":X c #FDE9D4",
">X c #FFF0DC",
",X c #FFF0D7",
"<X c #EEE1C9",
"1X c #ECECEB",
"2X c #E4E4E3",
"3X c #FEF3E2",
"4X c #FEF6EB",
"5X c #FEF8EE",
"6X c #EFF0F1",
"7X c #FEFBF5",
"8X c #FEFEFE",
"9X c #F5F6F6",
"0X c None",
/* pixels */
"0X0X0X0X0X0X0X0X0X0X0X0X0X0X0X0X0X0X0X0X0X0X0X0X0X0X0X0X0X0X0X0X",
"0X0X0X0X0X0X0X0X0X0X0X0X+X.XY.-X.X;X@X.X0X0X0X0X0X0X0X0X0X0X0X0X",
"0X0X0X0X0X0X0X0X0X}.3X3X5X X8X7X;X;X7X7X8X XR.0X0X0X0X0X0X0X0X0X",
"0X0X0X0X0X0X0X0XXX7X;X X&XU.(.(.Q.oX&X@X@X].5X=XH.0X0X0X0X0X0X0X",
"0X0X0X0X0X0X}.@XXXXXL.=.[ @.5.t.h.C.!.oXXX+X4X5X5XJ.0X0X0X0X0X0X",
"0X0X0X0X0XQ.>X[.Y.K n V I ` X.#.7.u.l.A.).OX-X].+X&XK.0X0X0X0X0X",
"0X0X0X0Xk.,X}.<.3 e a v B D Y ' o.4.0.i.V.!.oX+X}.^.,XJ.0X0X0X0X",
"0X0X0X0X^.oX,.+ - - 2 r f b D L ] { @.7.t.j.C.~.}.{.OX*X0X0X0X0X",
"0X0X0XM.B.p.. o * % % , q a b C P Y ' X.3.8.u.V.S.{.!.}.^.0X0X0X",
"0X0X;.B.M.o   o - # O # , q f b L F I T { o.5.u.j.A.(.d.Z./ 0X0X",
"0X0Xf.C.7 o + & a , O O - 0 c Z [ L L L T ` X.7.y.V.S.k.Z.x.0X0X",
"0X0Xl.x.$ h  . .O.M , O 3 c | f.!.f.X.I I I ' q.z.).!.u.e.z.0X0X",
"0X%.9.W # $X8X7X5XXX;.+ M M.>X8X8X8X>Xk.' Y &.(.5X8X`.6.r.q.W 0X",
"0X$.&.k < $X8Xb.T.8X#X3 U.8X9XF.:.%X8X8Xf.&.+X8X8X6Xm.o...8...0X",
"0X$.O.s a &X8XI.XX8XK.z 8X8XK.o . ~ 8X8XI.OX8X9Xc. .Y T _ 6.W 0X",
"0XK } g b &X8X1X8X1XQ.=.8X8X:.o X l 8X8X].7X8XW.F D V A M ( ) 0X",
"0XJ ] N Z :X8X1.s.8X8Xn.8X8Xv.0 % 1.8X8Xb.8X8X<X%.O.P v c J U 0X",
"0XH ] J ` >X8XN./.8X1Xz %X8X4XM.1.3X8X'.M %X8X8X4X-XQ.a r P G 0X",
"0Xh Z ( @.3X8X7X2XW.R 0 u R.9X8X8X8X1X^.n.: G.1X8X8X#Xq 3 S h 0X",
"0Xt b l 7.w.-..._ D b d r q i x :.<.E.2XE.X   $ 5 x 6 @ 3 S y 0X",
"0X0Xs y u.q.4.o.' Y D B c a 0 , & + @ % > .         . X j g 0X0X",
"0X0Xw a ^ l.u.7.#.{ ` L V n f r 3 - # O o .           O e t 0X0X",
"0X0X1 s y D.V.h.t.5.+.[ Y F C v d q < & @ o o         = e 3 0X0X",
"0X0X0X, - ! ).S.V.u.q.#.X.' I A n c p 0 - % + o .   + , , 0X0X0X",
"0X0X0X% & % ,.OX~.A.V.t.7.#.{ ` L C b f r 2 = # O O - % @ 0X0X0X",
"0X0X0X0X+ & % >.+XoXS.V.i.0.4.+.' Y S B v a 0 < @ # % # 0X0X0X0X",
"0X0X0X0X0X@ * # 7 '.OX).A.V.y.8.#.X.` I V n d = ; @ % 0X0X0X0X0X",
"0X0X0X0X0X0XX @ o O 9 '.oX!.V.h.t.5.@.{ U 3 O o % X 0X0X0X0X0X0X",
"0X0X0X0X0X0X0Xo X X + # 5 8 ,.p./ E 4 > o % X X . 0X0X0X0X0X0X0X",
"0X0X0X0X0X0X0X0X0X. +   . # O X O X   . X . X 0X0X0X0X0X0X0X0X0X",
"0X0X0X0X0X0X0X0X0X0X0X  X X O . X . X o   0X0X0X0X0X0X0X0X0X0X0X",
"0X0X0X0X0X0X0X0X0X0X0X0X0X0X0X0X0X0X0X0X0X0X0X0X0X0X0X0X0X0X0X0X"
};
