/* XPM */
static char *result[] = {
/* columns rows colors chars-per-pixel */
"64 64 238 2 ",
"   c #030000",
".  c #0C0000",
"X  c #130000",
"o  c #1B0000",
"O  c #1C0B04",
"+  c #230000",
"@  c #2B0000",
"#  c #340000",
"$  c #3C0000",
"%  c #3D0E04",
"&  c #31180F",
"*  c #430000",
"=  c #4B0000",
"-  c #480800",
";  c #530000",
":  c #5B0000",
">  c #570B00",
",  c #551702",
"<  c #471A0A",
"1  c #640000",
"2  c #6C0100",
"3  c #690B00",
"4  c #740100",
"5  c #7C0100",
"6  c #7A0B03",
"7  c #6F1710",
"8  c #4D3618",
"9  c #65301C",
"0  c #4F4524",
"q  c #6C4B32",
"w  c #7E5A4F",
"e  c #830000",
"r  c #8B0000",
"t  c #8B0D00",
"y  c #940000",
"u  c #9B0100",
"i  c #980B00",
"p  c #891304",
"a  c #981602",
"s  c #A40100",
"d  c #AC0000",
"f  c #A60800",
"g  c #B40100",
"h  c #BB0100",
"j  c #B20A00",
"k  c #A41701",
"l  c #B71200",
"z  c #992D07",
"x  c #A92503",
"c  c #BB2801",
"v  c #B63805",
"b  c #B2370C",
"n  c #9D372F",
"m  c #C30100",
"M  c #CC0100",
"N  c #CB0B01",
"B  c #D40100",
"V  c #DB0100",
"C  c #D40B00",
"Z  c #D80B04",
"A  c #C51500",
"S  c #D61104",
"D  c #E40300",
"F  c #E80600",
"G  c #EC0C00",
"H  c #E40C00",
"J  c #EE1100",
"K  c #E41501",
"L  c #F11500",
"P  c #F31B00",
"I  c #C32B04",
"U  c #D42B01",
"Y  c #CB3706",
"T  c #C23510",
"R  c #E92801",
"E  c #F62300",
"W  c #F82700",
"Q  c #F42C00",
"!  c #F92C00",
"~  c #FB3300",
"^  c #FD3C00",
"/  c #F33701",
"(  c #ED2E0C",
")  c #934D13",
"_  c #B55812",
"`  c #944331",
"'  c #B25131",
"]  c #AC783C",
"[  c #B6773B",
"{  c #B9712C",
"}  c #9E763E",
"|  c #D64605",
" . c #D1520B",
".. c #FD4400",
"X. c #FE4B00",
"o. c #F44605",
"O. c #FE5401",
"+. c #FE5C01",
"@. c #F75808",
"#. c #E85817",
"$. c #EF4F03",
"%. c #DB6B19",
"&. c #CB6B13",
"*. c #FE6303",
"=. c #FE6B05",
"-. c #FD6C0B",
";. c #FF7107",
":. c #FF7509",
">. c #FE7C0B",
",. c #FC6A11",
"<. c #FC7817",
"1. c #E96415",
"2. c #C65029",
"3. c #D8712F",
"4. c #F66A28",
"5. c #F2752C",
"6. c #E45B35",
"7. c #975047",
"8. c #AF5547",
"9. c #8F765A",
"0. c #AE675A",
"q. c #927B6A",
"w. c #8E7963",
"e. c #B27666",
"r. c #D07050",
"t. c #CA7D72",
"y. c #F47C66",
"u. c #F9674C",
"i. c #FE820E",
"p. c #FE8512",
"a. c #FE8B14",
"s. c #FB8A1B",
"d. c #FE941B",
"f. c #FE991F",
"g. c #FE9017",
"h. c #D38B30",
"j. c #FD8727",
"k. c #FE9C23",
"l. c #FD9B29",
"z. c #EF8C35",
"x. c #FEA42C",
"c. c #FEA026",
"v. c #FEAB34",
"b. c #FEAD3B",
"n. c #FEA538",
"m. c #FEB13C",
"M. c #DFA03D",
"N. c #AD8A56",
"B. c #BC9879",
"V. c #AF8C70",
"C. c #CB9551",
"Z. c #EE914F",
"A. c #D2A459",
"S. c #EDA845",
"D. c #FEAC45",
"F. c #FEB543",
"G. c #FEBA4B",
"H. c #FFB64B",
"J. c #FBA457",
"K. c #FEBD53",
"L. c #FFBC59",
"P. c #FEB55B",
"I. c #C78B72",
"U. c #E99579",
"Y. c #EB936A",
"T. c #D8AF74",
"R. c #FBB962",
"E. c #FDB873",
"W. c #EDAA6E",
"Q. c #FEC25B",
"!. c #FEC257",
"~. c #FEC564",
"^. c #FEC96C",
"/. c #FEC667",
"(. c #FECC73",
"). c #FFCF79",
"_. c #FCC677",
"`. c #FFD17C",
"'. c #B3988B",
"]. c #B1A797",
"[. c #B8B8B6",
"{. c #BCB1A8",
"}. c #D1998A",
"|. c #FB9381",
" X c #D3A991",
".X c #F9BA86",
"XX c #F9AE91",
"oX c #C6B5A6",
"OX c #C4BEB5",
"+X c #FAB9A7",
"@X c #E4B7A9",
"#X c #FFC985",
"$X c #FFD383",
"%X c #FED58C",
"&X c #FBCA98",
"*X c #FED492",
"=X c #FED994",
"-X c #FEDB9C",
";X c #FFD49B",
":X c #EFCB92",
">X c #C4C2B9",
",X c #DDCCAD",
"<X c #F9C9A9",
"1X c #FEDDA4",
"2X c #FED9A7",
"3X c #FCCCB7",
"4X c #E8D3B2",
"5X c #FDDAB5",
"6X c #F7D7B6",
"7X c #FEE1AC",
"8X c #FEE4B4",
"9X c #FFE6BB",
"0X c #FEE8BE",
"qX c #EED39E",
"wX c #C9C9C7",
"eX c #D9DADB",
"rX c #CFD1CD",
"tX c #F5D9CC",
"yX c #FFEAC4",
"uX c #FEEBCB",
"iX c #FEE5C4",
"pX c #FEEDD2",
"aX c #F9E8DA",
"sX c #FFF2DC",
"dX c #FEF0D4",
"fX c #EFE6D3",
"gX c #E9EBEC",
"hX c #F8EBE1",
"jX c #FEF5E5",
"kX c #FEF6EA",
"lX c #FFF8EE",
"zX c #F9F4E9",
"xX c #F4F5F6",
"cX c #FEFAF3",
"vX c #FEFEFE",
"bX c #FAF7F4",
"nX c #EEF0F1",
"mX c None",
/* pixels */
"mXmXmXmXmXmXmXmXmXmXmXmXmXmXmXmXmXmXmXmXmXmXmXmXmXmXmXmXmXmXmXmXmXmXmXmXmXmXmXmXmXmXmXmXmXmXmXmXmXmXmXmXmXmXmXmXmXmXmXmXmXmXmXmX",
"mXmXmXmXmXmXmXmXmXmXmXmXmXmXmXmXmXmXmXmXmXmXmXmXmXmXmXmXmXmXmXmXmXmXmXmXmXmXmXmXmXmXmXmXmXmXmXmXmXmXmXmXmXmXmXmXmXmXmXmXmXmXmXmX",
"mXmXmXmXmXmXmXmXmXmXmXmXmXmXmXmXmXmXmXmXmXmXmXmXmXP.*X2XU.Y.5XtX<XU.3X+XXX|.u.mXmXmXmXmXmXmXmXmXmXmXmXmXmXmXmXmXmXmXmXmXmXmXmXmX",
"mXmXmXmXmXmXmXmXmXmXmXmXmXmXmXmXmXmXmXmXmXmX_.2XjXvXvX}.@XlXjXlXlXpXvXvXbXcXvXbX+Xt.mXmXmXmXmXmXmXmXmXmXmXmXmXmXmXmXmXmXmXmXmXmX",
"mXmXmXmXmXmXmXmXmXmXmXmXmXmXmXmXmXmXmXL.2XjXcXpXvXlX}.aXvXcXvXcXbXxXjXcXhXvXcXvXcXvXtX8.8.mXmXmXmXmXmXmXmXmXmXmXmXmXmXmXmXmXmXmX",
"mXmXmXmXmXmXmXmXmXmXmXmXmXmXmXmXmXmX2XjXvXvXvXuXcXaX<XcXvXcXcXcX<XtX+XaXvXvXkXvXvXvXbXkXbX@X7.mXmXmXmXmXmXmXmXmXmXmXmXmXmXmXmXmX",
"mXmXmXmXmXmXmXmXmXmXmXmXmXmXmXmXR.kXvXcXcXvXhX}.cXhX+XcXcXkXsXsXaXI.pX5XcXvXvXcXvXtX}. XvXvXbX].mXmXmXmXmXmXmXmXmXmXmXmXmXmXmXmX",
"mXmXmXmXmXmXmXmXmXmXmXmXmXmXR.iXXXcXkXkXtX&X+XhXiX.Xz.D.x.b.m.K.~.).$X=X7X:X X&XhXU.cX;XuXbXcXcXtX9.mXmXmXmXmXmXmXmXmXmXmXmXmXmX",
"mXmXmXmXmXmXmXmXmXmXmXmXmX#XjXcX3XkXjXXXiXyX|.5.+.*.:.i.g.k.x.m.F.!.^.).=X-X8X9X6X4X#XjXlXcXcXcXzXjXV.mXmXmXmXmXmXmXmXmXmXmXmXmX",
"mXmXmXmXmXmXmXmXmXmXmXmX;XlX5X XW.2XiX5Xy.( E ~ ..O.*.;.>.a.d.l.v.F.G.~.(.$X=X7X8X0XuXuXpXcXcXkXlXcXxXB.mXmXmXmXmXmXmXmXmXmXmXmX",
"mXmXmXmXmXmXmXmXmXmXmX.XcXcXuX.XpXsXY.Z D F G E ! ^ ..O.*.:.>.g.f.x.b.F.!.Q.).%X-X7X9XyXuXuXuX X3XlXkXiXI.mXmXmXmXmXmXmXmXmXmXmX",
"mXmXmXmXmXmXmXmXmXmX#X2X5XaX<X3X6X2.d h M B D F L E ~ ..X.*.=.>.i.d.l.x.b.!.!.^.`.=X1X8X9XuX4X:X-X5XpX<X3XoXmXmXmXmXmXmXmXmXmXmX",
"mXmXmXmXmXmXmXmXmXZ.dXdX9XW.}.T.p r y s g h M V D G P ! ^ X.O.*.;.>.a.f.l.v.m.!.~.(.$X-X7X8XyXuX-X8XW.}.sXsX'.mXmXmXmXmXmXmXmXmX",
"mXmXmXmXmXmXmXmXn..XuXuXuX8XC.= 1 4 5 r y d g m B V F L E ~ ^ X.+.=.:.i.g.f.x.b.G.!./.`.=X-X7X9XyX*X1XdXpXuXdXq.mXmXmXmXmXmXmXmX",
"mXmXmXmXmXmXmXmXY.7X7X9X0X0.+ # : : 1 4 5 r u g h M V D J P W ~ ..O.+.=.>.p.d.k.x.m.G.Q.^.$X=X7X8XyX%X8XyXuXyXiXq mXmXmXmXmXmXmX",
"mXmXmXmXmXmXmX&X:X7X7X7X[ X o @ ; ; ; : : 2 5 y d g M M D G L E ~ ^ X.+.*.;.i.a.f.x.v.G.!.~.`.$X-X7X9XE.&X8X8X9X,XmXmXmXmXmXmXmX",
"mXmXmXmXmXmXJ.9X.X_.-XA.O . X + ; = = = * ; 1 5 r s g g B D D L E ! ^ ..O.+.=.:.i.g.k.x.m.G.Q.~.`.*X1X8XE.1X8X8X7XN.mXmXmXmXmXmX",
"mXmXmXmXmXmXJ.z.Y..XY.O   . . o ; * $ $ # $ = 1 4 r s s m B B G P E E ~ ^ X.O.*.;.>.a.g.c.v.G.!.~.(.%X-X1XE.7X-X:X2X8 mXmXmXmXmX",
"mXmXmXmXmXJ.Z.%X-X_.<       . o 2 = $ # @ @ # ; 1 4 y r g M m F P P L W ! ^ ..X.+.=.:.i.a.f.v.m.G.!.^.%X-X$XR.r.E.7X] mXmXmXmXmX",
"mXmXmXmXmX3.T.J.W. ..   . . X + 5 : * # + + @ * ; 1 r 5 s M h F E W J E E W ! ^ X.O.+.=.>.a.l.x.m.G.!.(.%X*X{ ^.R.D.K.mXmXmXmXmX",
"mXmXmXmX4.D.^.^.L.%   . X X + $ d 5 : $ + o o $ = 1 r 4 s B h P ..~ J E E E P ! ^ ..X.O.*.:.g.k.x.b.G.^.$X).E.D.^.~.K.} mXmXmXmX",
"mXmXmXmXj.^.K.~.2.. + # = * ; 5 Z g r 1 @ o X # ; 1 u 5 g F B ^ :.+.E ^ ! E L E ~ ~ ~ ..O.=.p.f.x.v.G.^.$X~.L.z.~.K.~.S.mXmXmXmX",
"mXmXmX( n.Q.R.D.> o 4 y m N M Z ..R B g : @ X # ; 5 g u B ..~ s.!.l.+.-.O.! J ! ~ W W ~ ..+.p.k.m.m.~.%X-X!.F.b.z.!.~.G.q mXmXmX",
"mXmXmX#.H.).F.1.o # R ,.<.j.j.s.n.<...Q h ; . # 4 s V B / b.P.1XsX0X#X~.l.*.! ..^ E E ! ^ *.a.m.^.`.7XdXuX!.x.b.5.m.K.!.] mXmXmX",
"mXmXmXj.s.&.#.3 @ : +XcXvXcXcXlXkXyX=XP.@.s . * s Z X.j.%XlXvXvXvXvXvXvXsX%Xp.;.O.E E ! ..;.n.%XuXzXvXvXwXL.d.k.1.F.m.c.&.mXmXmX",
"mXmXmXl.l.l.z.; * 2 +XvXvXvXvXvXvXvXvXvXiX#.o : V @.#XkXvXvXvXvXvXvXvXvXvXvXpX(.a.Q W ..=.n.1XcXvXvXvXvXwXL.i.a.d.%.<.,.s.% mXmX",
"mXmXI d.f.<.%.1 ; 5 +XvXvXvXwX[ B.xXvXvXvX@X; 4 O.%XvXvXvXvXxXwX{.>XxXvXvXvXvXzXL.X...=.b.yXvXvXvXvXvXvXeXH.;.:.p._ a.c.g.9 mXmX",
"mXmX| <.;.<.x e 2 u +XvXvXvXOXR o.aXvXvXvXwX6 k _.vXvXvXvXgX7.a 6 i 8.nXvXvXvXvX,X-.-.K.jXvXvXvXvXvXxXwX'.h.+.*.;. .g.c.<.) mXmX",
"mXmX| <.f.-.k u r d +XvXvXvX>X-.j.lXvXvXvX'.5 Y jXvXvXvXvX7.= . . X 2 XXvXvXvXvXwXd.D.jXvXvXvXvXnX].{ 1.O.X.....O.| f.f.l._ mXmX",
"mXmX%.a.@.@.i h d m &XvXvXvXwX*XuXvXvXvX]. .e 6.vXvXvXvXwXz . .   . * 4.vXvXvXvXgXM.8XvXvXvXvXeX] o.J K L E ! ! ^ Y i.i.c z mXmX",
"mXmX .c @.@.j M h Z &XvXvXvXvXvXvXvXvX[.:X-.N y.vXvXvXvX{.k . .   X ; 4.vXvXvXvXxXA.cXvXvXvXxXN.Q G G J G P P P Q U 1.| &.| mXmX",
"mXmXz o.+.$.i V B H <XvXvXvXnXwXxXvXvXvXzX2Xo.|.vXvXvXvX{.I X o . X 5 5.vXvXvXvXgXT.vXvXvXvXrXS.E P P E G G F D J l b | +. .mXmX",
"mXmXv X.X./ a G D J 2XvXvXvX>X#.2.wXvXvXvXvXZ.|.vXvXvXvXOX#.* = o @ g J.vXvXvXvX[.E.vXvXvXvXeX_.@.^ ..X.P G V B D h v Q o.| mXmX",
"mXmXc ..o./ x Q P ! 2XvXvXcX>XR Q _.vXvXvXvXB.u.vXvXvXvXeXZ.g h : 4 o.8XvXvXvXvXe.4.vXvXvXvXvXfXD.a.s.g.O.P B h M d U ^ R I mXmX",
"mXmXc Q X.^ x ^ ~ ..5XvXvXvXOX..:.8XvXvXvXvX0.S hXvXvXvXvX4X,...S R ).vXvXvXvXwXT Z fXvXvXvXvXvXlXyX1X1X~.j.M s g y R ! R v mXmX",
"mXmXl ..../ v O.X.O.8XvXvXvXwXH.1XvXvXvXvX[.c e r.xXvXvXvXvXsX2X#X5XvXvXvXvXrX{ J m 2.xXvXvXvXvXvXvXvXvXvXoXN r u 5 E Q S i mXmX",
"mXmXe / Q J x ;.+.=.9XvXvXvXvXvXvXvXvXnX].b u 2 s r.nXvXvXvXvXvXvXvXvXvXvX[.C.d.<.Q 2 n rXvXvXvXvXvXvXvXvXoXA 2 5 5 E S P t mXmX",
"mXmX> P N H u i.:.i.yXvXvXvXvXnXeX[.V.' R h y e 4 s b '.eXxXvXvXvXvXvXvXvXvXlXzXbX X= X 6 0.OXxXvXvXvXvXvX>Xj ; 1 t J Q K 3 mXmX",
"mXmXmXZ S S 6 %.a.a.A.N.N.N.] { &.@.Q D M m g u r 5 5 j x ' 0.V.'.oXeXxXvXvXvXvXvX'.#     o 1 7 ` 0.e.t.e.7.5 # = u G R U > mXmX",
"mXmXmXl V N N ) l.d.a.p.:.*.+.o.~ E P G D B m h d u r 4 2 4 5 4 5 t p z 8.V.[.eXvXe.o           X o $ * $ # @ @ @ N Q K m mXmXmX",
"mXmXmXt B r y a v.x.k.g.i.;.=.O.X.^ ! P L F V B m g s y e 2 : = * # @ @ @ ; 6 6 n 7 .                   . . X o : P K C * mXmXmX",
"mXmXmX; 5 A c e M.F.x.l.d.p.>.=.+.O...~ E P F D B M m d u r 5 2 ; = $ @ @ + X X . .                       . X X z A u r > mXmXmX",
"mXmXmXmXa a y m ) Q.!.v.x.k.g.i.:.=.+.X.^ ~ E L F D B M h d y e 4 1 ; * # @ @ o X X .                         @ a y k u mXmXmXmX",
"mXmXmXmX* g d s i A.!.!.F.v.x.f.a.>.;.*.O...^ ! P G D V M m g s y 5 2 : = $ # @ + o X . .                     2 e u g 5 mXmXmXmX",
"mXmXmXmXmXa i h Z ` `.^.Q.G.m.x.l.g.a.>.=.+.X...~ E L G D B M h d u r 4 1 ; * # @ + o X X . .               X 4 6 f g # mXmXmXmX",
"mXmXmXmXmX: 6 k u ; B.$X`.^.!.G.b.x.f.a.i.:.*.+.X.^ ! E L F V B m g s y e 4 1 = * # @ + o X . .             = 5 e s e mXmXmXmXmX",
"mXmXmXmXmXo 4 4 2 $ 7 qX=X%X^.~.!.m.v.c.d.a.>.;.*.O...~ E P G D V M h g s r 5 2 : = $ # + o o X .         @ 2 2 4 4 X mXmXmXmXmX",
"mXmXmXmXmXmX* 1 2 = : q 8X-X=X`.^.!.G.m.x.k.g.i.:.=.+.X...! E L F D B M h s u e 4 1 ; * $ @ + o X X .   o ; : : 1 ; mXmXmXmXmXmX",
"mXmXmXmXmXmXmX1 = * = = 9.9X7X-X%X).~.!.F.v.c.f.a.i.;.*.O.X.^ ! P L F V M m g s y 5 2 : = $ # @ @ o X X = ; = = ; X mXmXmXmXmXmX",
"mXmXmXmXmXmXmX@ * ; # ; = e.yX8X7X=X$X^.~.G.m.v.c.d.p.>.=.*.X...~ E L G D V M h d s r 5 2 : = $ @ @ o - 3 3 $ * @ mXmXmXmXmXmXmX",
"mXmXmXmXmXmXmXmXo # # # $ @ w.uX9X7X1X=X`.^.!.G.m.x.k.g.i.:.=.*.X.^ ! E L F D B m h s y e 4 1 = * # @ * ; # 1 @ mXmXmXmXmXmXmXmX",
"mXmXmXmXmXmXmXmXmX$ : 2 * ; o w uXuX8X2X-X%X(.~.!.F.v.c.f.a.>.;.*.O...^ W P J D V M m g s r 5 4 $ @ ; @ $ = # mXmXmXmXmXmXmXmXmX",
"mXmXmXmXmXmXmXmXmXmX@ 3 p , $ # 9 4XaXiX7X7X*X$X^.!.!.m.x.k.d.p.>.=.+.O.^ ~ E P F D B M h d u = 3 p , # # 2 X mXmXmXmXmXmXmXmXmX",
"mXmXmXmXmXmXmXmXmXmXmX@ # o @ 1 5 O q.uXuX9X7X-X%X`.~.!.G.v.x.f.a.i.:.*.+.X.^ ! E L F V B e @ * # # + + ; o mXmXmXmXmXmXmXmXmXmX",
"mXmXmXmXmXmXmXmXmXmXmXmX# X o 2 @ X O & '.yXyX9X7X=X$X(.Q.!.m.x.l.f.a.>.=.*.O...~ E P j # + + @ @ * X + X mXmXmXmXmXmXmXmXmXmXmX",
"mXmXmXmXmXmXmXmXmXmXmXmXmX. . @ X . X X . & q.4X0X8X7X%X`.^.!.!.m.x.k.g.i.:.=.*.o.z = X X @ . o : @ . mXmXmXmXmXmXmXmXmXmXmXmXmX",
"mXmXmXmXmXmXmXmXmXmXmXmXmXmX+ X X X . . o # . @ 0 w.B.qX-X=X`.^.!.F.v.x.s.&.) , o o @ * o X . o X   mXmXmXmXmXmXmXmXmXmXmXmXmXmX",
"mXmXmXmXmXmXmXmXmXmXmXmXmXmXmX. . X   + X ; = 4 . o O X < < 8 0 0 8 < O     . o X @ 6 X X + . @   mXmXmXmXmXmXmXmXmXmXmXmXmXmXmX",
"mXmXmXmXmXmXmXmXmXmXmXmXmXmXmXmXmX.   X o #   . . o @ : 1 . X   o # X X . .     . X X   X o   mXmXmXmXmXmXmXmXmXmXmXmXmXmXmXmXmX",
"mXmXmXmXmXmXmXmXmXmXmXmXmXmXmXmXmXmXmXo = X   . . + # - X   . + #   X . .     @ o X . .   mXmXmXmXmXmXmXmXmXmXmXmXmXmXmXmXmXmXmX",
"mXmXmXmXmXmXmXmXmXmXmXmXmXmXmXmXmXmXmXmXmX  .     @ @     +   .   . X X   . $ o     X mXmXmXmXmXmXmXmXmXmXmXmXmXmXmXmXmXmXmXmXmX",
"mXmXmXmXmXmXmXmXmXmXmXmXmXmXmXmXmXmXmXmXmXmXmXmXX X . X # # X .   @ .   @ X o   mXmXmXmXmXmXmXmXmXmXmXmXmXmXmXmXmXmXmXmXmXmXmXmX",
"mXmXmXmXmXmXmXmXmXmXmXmXmXmXmXmXmXmXmXmXmXmXmXmXmXmXmXmXmX            mXmXmXmXmXmXmXmXmXmXmXmXmXmXmXmXmXmXmXmXmXmXmXmXmXmXmXmXmX",
"mXmXmXmXmXmXmXmXmXmXmXmXmXmXmXmXmXmXmXmXmXmXmXmXmXmXmXmXmXmXmXmXmXmXmXmXmXmXmXmXmXmXmXmXmXmXmXmXmXmXmXmXmXmXmXmXmXmXmXmXmXmXmXmX"
};
